<svg xmlns:xlink="http://www.w3.org/1999/xlink" xmlns="http://www.w3.org/2000/svg" height="18" width="18" role="presentation"><defs><svg id="managed-icon__search" fill="var(--icon-color-primary, #24282b)" viewBox="0 0 14 14">
  <path d="M1.676 5.7c0-2.2 1.873-4 4.042-4 2.268 0 4.043 1.8 4.043 4s-1.775 4-4.043 4c-2.169 0-4.042-1.8-4.042-4zm11.732 6.4L10.352 9c.69-.9 1.085-2.1 1.085-3.3 0-3.1-2.564-5.7-5.719-5.7C2.563 0 0 2.6 0 5.7s2.563 5.7 5.718 5.7c1.085 0 2.17-.4 3.057-.9l3.253 3.2c.197.2.493.3.789.3.296 0 .591-.1.789-.3.197-.2.394-.5.394-.8 0-.3-.296-.5-.592-.8z" fill="#24282B"></path>
</svg></defs><use href="#managed-icon__search"></use></svg>