<svg xmlns:xlink="http://www.w3.org/1999/xlink" xmlns="http://www.w3.org/2000/svg" height="22" width="22" role="presentation"><defs><svg id="managed-icon__messaging" fill="var(--icon-color-primary, white)" viewBox="0 0 21 21">
  <path d="M10.5 0C4.7 0 0 4.722 0 10.55c0 2.21.7 4.22 1.8 5.828l-.7 4.12 4.5-.704C7.1 20.598 8.8 21 10.5 21 16.3 21 21 16.278 21 10.45S16.3 0 10.5 0zM5.9 7.636c0-.904.8-1.708 1.7-1.708.9 0 1.7.804 1.7 1.708 0 .905-.8 1.708-1.7 1.708-.9 0-1.7-.803-1.7-1.708zm4.6 8.44c-2.1 0-3.9-1.105-4.6-2.712-.3-.603.3-1.307 1.1-1.307h6.8c.8 0 1.4.704 1.1 1.307-.5 1.607-2.3 2.713-4.4 2.713zm2.9-6.832c-.9 0-1.7-.804-1.7-1.708 0-.904.8-1.708 1.7-1.708.9 0 1.7.804 1.7 1.708 0 .904-.7 1.708-1.7 1.708z" fill="#FFFFFF"></path>
</svg></defs><use href="#managed-icon__messaging"></use></svg>