<svg xmlns:xlink="http://www.w3.org/1999/xlink" xmlns="http://www.w3.org/2000/svg" height="21" width="23" role="presentation"><defs><svg id="managed-icon__mail" fill="var(--icon-color-primary, currentcolor)" viewBox="0 0 23 16.9">
  <path d="M20.9 0H2.1C.6 0 0 .7 0 2.2v12.5c0 1.6.6 2.2 2.1 2.2h18.8c1.5 0 2.1-.7 2.1-2.2V2.2C23 .7 22.4 0 20.9 0zm.4 13.6c.3.3-.2.8-.5 1.1-.1.2-.3.5-.5.5s-.2.1-.3-.1l-5.5-5-.6.5c-.7.6-1.6 1.1-2.4 1.1-.9 0-1.7-.4-2.4-1.1l-.6-.6-5.2 4.8c-.1.1-.3.2-.5.2s-.4-.1-.5-.2c-.3-.3-.8-1-.5-1.3l5.1-4.9-5-5c-.3-.3.1-.8.3-1.1.3-.3.8-.4 1.1-.2L10 8.9c.4.4.9.8 1.4.9.6 0 1.1-.4 1.6-.9l6.6-6.7c.3-.3.9 0 1.2.3.3.3.4 1 .2 1.2l-4.9 4.8 5.2 5.1z"></path>
</svg></defs><use href="#managed-icon__mail"></use></svg>