<svg xmlns:xlink="http://www.w3.org/1999/xlink" xmlns="http://www.w3.org/2000/svg" height="21" width="21" role="presentation" style="--icon-color-primary:rgba(var(--black), 0.65);"><defs><svg id="managed-icon__reblog" fill="var(--icon-color-primary, rgba(var(--black), 0.65))" viewBox="0 0 17 18.1">
  <path d="M12.8.2c-.4-.4-.8-.2-.8.4v2H2c-2 0-2 2-2 2v5s0 1 1 1 1-1 1-1v-4c0-1 .5-1 1-1h9v2c0 .6.3.7.8.4L17 3.6 12.8.2zM4.2 17.9c.5.4.8.2.8-.3v-2h10c2 0 2-2 2-2v-5s0-1-1-1-1 1-1 1v4c0 1-.5 1-1 1H5v-2c0-.6-.3-.7-.8-.4L0 14.6l4.2 3.3z" fill-opacity="0.65" fill="#000000"></path>
</svg></defs><use href="#managed-icon__reblog"></use></svg>