<svg xmlns:xlink="http://www.w3.org/1999/xlink" xmlns="http://www.w3.org/2000/svg" height="21" width="14" role="presentation"><defs><svg id="managed-icon__lightning" fill="var(--icon-color-primary, currentcolor)" viewBox="0 0 13.8 19.6">
  <path d="M3.5 19.5c-.1 0-.2-.1-.2-.1-.6-.3-.9-.9-.7-1.5l2.2-5.8H1.3c-.1 0-.3 0-.4-.1-.4-.1-.6-.3-.8-.6-.2-.4-.2-1 .2-1.4L8.9.5c.3-.4.9-.6 1.4-.4.1 0 .2.1.2.1.6.3.9.9.7 1.5L9 7h3.5c.1 0 .3 0 .4.1.4.1.6.5.7.8.2.4.2 1-.2 1.4L4.8 19c-.2.3-.6.5-1 .5 0 .1-.2.1-.3 0z"></path>
</svg></defs><use href="#managed-icon__lightning"></use></svg>